<?xml version="1.0" encoding="UTF-8" standalone="no"?>
<svg
   xmlns:osb="http://www.openswatchbook.org/uri/2009/osb"
   xmlns:dc="http://purl.org/dc/elements/1.1/"
   xmlns:cc="http://creativecommons.org/ns#"
   xmlns:rdf="http://www.w3.org/1999/02/22-rdf-syntax-ns#"
   xmlns:svg="http://www.w3.org/2000/svg"
   xmlns="http://www.w3.org/2000/svg"
   xmlns:sodipodi="http://sodipodi.sourceforge.net/DTD/sodipodi-0.dtd"
   xmlns:inkscape="http://www.inkscape.org/namespaces/inkscape"
   aria-hidden="true"
   data-prefix="fas"
   data-icon="bars"
   class="svg-inline--fa fa-bars fa-w-14"
   role="img"
   viewBox="0 0 448 512"
   version="1.1"
   id="svg3779"
   sodipodi:docname="bars.svg"
   inkscape:version="0.92.3 (2405546, 2018-03-11)">
  <metadata
     id="metadata3785">
    <rdf:RDF>
      <cc:Work
         rdf:about="">
        <dc:format>image/svg+xml</dc:format>
        <dc:type
           rdf:resource="http://purl.org/dc/dcmitype/StillImage" />
        <dc:title></dc:title>
      </cc:Work>
    </rdf:RDF>
  </metadata>
  <defs
     id="defs3783">
    <linearGradient
       id="linearGradient6070"
       osb:paint="solid">
      <stop
         style="stop-color:#1d3557;stop-opacity:1;"
         offset="0"
         id="stop6068" />
    </linearGradient>
  </defs>
  <sodipodi:namedview
     pagecolor="#ffffff"
     bordercolor="#666666"
     borderopacity="1"
     objecttolerance="10"
     gridtolerance="10"
     guidetolerance="10"
     inkscape:pageopacity="0"
     inkscape:pageshadow="2"
     inkscape:window-width="1853"
     inkscape:window-height="1023"
     id="namedview3781"
     showgrid="false"
     inkscape:zoom="1.6347656"
     inkscape:cx="107.77539"
     inkscape:cy="256"
     inkscape:window-x="1433"
     inkscape:window-y="27"
     inkscape:window-maximized="1"
     inkscape:current-layer="svg3779" />
  <path
     fill="currentColor"
     d="M16 132h416c8.837 0 16-7.163 16-16V76c0-8.837-7.163-16-16-16H16C7.163 60 0 67.163 0 76v40c0 8.837 7.163 16 16 16zm0 160h416c8.837 0 16-7.163 16-16v-40c0-8.837-7.163-16-16-16H16c-8.837 0-16 7.163-16 16v40c0 8.837 7.163 16 16 16zm0 160h416c8.837 0 16-7.163 16-16v-40c0-8.837-7.163-16-16-16H16c-8.837 0-16 7.163-16 16v40c0 8.837 7.163 16 16 16z"
     id="path3777" />
  <path
     style="fill:#000000;stroke-width:0.61170846"
     d="M 13.172693,451.33643 C 7.02927,450.12244 2.1194138,445.4349 0.83681714,439.55912 0.37132497,437.42663 0.21050956,429.10291 0.34427639,414.06547 0.53590881,392.52305 0.58955252,391.65095 1.8701609,389.25891 c 1.6459516,-3.07446 4.5781427,-5.9894 7.476697,-7.4327 2.1087851,-1.05005 11.6142091,-1.10576 214.0443121,-1.25439 l 211.83753,-0.15553 3.01996,1.29915 c 3.3404,1.437 6.7095,4.79103 8.36428,8.32685 0.97241,2.07778 1.08038,4.62196 1.08439,25.55245 0.004,18.22843 -0.17802,23.76187 -0.8411,25.64029 -1.13617,3.21863 -5.26022,7.5972 -8.63592,9.16889 l -2.75269,1.28162 -209.81601,0.0885 c -115.3988,0.0487 -211.014317,-0.14824 -212.478917,-0.43766 z"
     id="path4592"
     inkscape:connector-curvature="0" />
  <path
     style="fill:#000000;stroke-width:0.61170846"
     d="M 13.172693,451.336 C 7.0300261,450.12316 2.1194609,445.43512 0.83681714,439.55912 0.37132497,437.42663 0.21050956,429.10291 0.34427639,414.06547 0.53605703,392.50639 0.58867124,391.65259 1.8733305,389.2527 c 0.7317416,-1.36697 2.3671415,-3.49236 3.6342217,-4.72307 4.6173188,-4.48479 -15.4451651,-4.10878 218.8766878,-4.10215 l 211.08338,0.006 3.063,1.42636 c 1.68464,0.7845 3.99005,2.48222 5.12311,3.77272 4.10512,4.67546 4.04806,4.25319 4.04806,29.9622 0,18.21935 -0.18281,23.76281 -0.84556,25.64029 -1.13617,3.21863 -5.26022,7.5972 -8.63592,9.16889 l -2.75269,1.28162 -209.81601,0.0881 C 110.25281,451.82212 14.637293,451.62517 13.172693,451.336 Z"
     id="path4594"
     inkscape:connector-curvature="0" />
  <path
     style="fill:#000000;stroke-width:0.61170846"
     d="M 13.35429,451.43286 C 9.9093697,450.86392 5.4062973,448.07929 3.3574848,445.25099 0.30712733,441.04009 0.15695669,439.50962 0.35757199,414.67718 0.56545537,388.9451 0.47471857,389.50338 5.2202963,384.7578 9.9746127,380.00349 -11.146803,380.42081 224.38424,380.42748 l 211.08338,0.006 3.063,1.42636 c 1.68464,0.7845 3.99005,2.48222 5.12311,3.77272 4.10512,4.67546 4.04806,4.25319 4.04806,29.9622 0,18.21935 -0.18281,23.76281 -0.84556,25.64029 -1.05784,2.99673 -5.04923,7.38385 -8.30257,9.12573 l -2.47433,1.32478 -210.12186,0.0786 C 110.39044,451.80736 14.719013,451.6583 13.35429,451.43292 Z"
     id="path4596"
     inkscape:connector-curvature="0" />
  <path
     style="fill:#000000;stroke-width:0.61170846"
     d="M 13.388769,451.41839 C 7.7500737,450.44267 2.9952637,446.41082 1.1716673,441.05886 c -1.32321471,-3.88342 -1.38073507,-45.50304 -0.068912,-49.86189 1.3150978,-4.36974 4.6189531,-8.00411 8.6458331,-9.51076 l 3.3802206,-1.2647 H 224.47148 435.81415 l 2.92409,1.48175 c 3.55045,1.79914 6.99269,5.47834 8.12509,8.68441 1.22232,3.46064 1.21619,47.18193 -0.007,50.64736 -1.05784,2.99673 -5.04923,7.38385 -8.30257,9.12573 l -2.47433,1.32478 -210.12186,0.0781 c -115.56703,0.0429 -211.222942,-0.1124 -212.568701,-0.34527 z"
     id="path4598"
     inkscape:connector-curvature="0" />
  <path
     style="fill:#000000;stroke-width:0.61170846"
     d="M 13.388769,451.41663 C 7.7534692,450.44556 2.9955911,446.41178 1.1716673,441.05886 c -1.32321471,-3.88342 -1.38073507,-45.50304 -0.068912,-49.86189 1.3150978,-4.36974 4.6189531,-8.00411 8.6458331,-9.51076 l 3.3802206,-1.2647 H 224.47148 435.81415 l 2.92409,1.48175 c 3.55045,1.79914 6.99269,5.47834 8.12509,8.68441 0.65452,1.85308 0.83846,7.54045 0.83846,25.92464 0,22.98878 -0.0316,23.60916 -1.32451,25.99761 -1.78231,3.29254 -5.41904,6.69805 -8.76868,8.21116 -2.75114,1.24275 -2.87068,1.24341 -212.26284,1.18032 -115.23059,-0.0348 -210.611232,-0.25287 -211.956991,-0.48477 z"
     id="path4600"
     inkscape:connector-curvature="0" />
  <path
     style="fill:#000000;stroke-width:0.61170846"
     d="M 13.388769,451.4344 C 7.8999961,450.52844 2.3021906,445.63936 0.87664395,440.50641 c -1.02405664,-3.6873 -0.84224134,-45.75958 0.21290115,-49.26555 1.2076827,-4.01282 4.3145146,-7.65899 7.9807417,-9.36618 l 3.0950652,-1.44122 211.824398,-0.006 211.8244,-0.006 2.92409,1.48175 c 3.55045,1.79914 6.99269,5.47834 8.12509,8.68441 0.65452,1.85308 0.83846,7.54045 0.83846,25.92464 0,22.98878 -0.0316,23.60916 -1.32451,25.99761 -1.78231,3.29254 -5.41904,6.69805 -8.76868,8.21116 -2.75114,1.24275 -2.87068,1.24341 -212.26284,1.18032 -115.23059,-0.0348 -210.611232,-0.24488 -211.956991,-0.467 z"
     id="path4602"
     inkscape:connector-curvature="0" />
  <path
     style="fill:#000000;stroke-width:0.61170846"
     d="M 13.059682,451.42672 C 7.7245893,450.38153 2.2584767,445.48196 0.87664395,440.50641 0.49486733,439.13176 0.24250675,429.47603 0.24044847,416.16455 c -0.003779,-24.44386 0.21020292,-26.17842 3.75884833,-30.46951 1.0792514,-1.30505 3.3581261,-3.02279 5.0641657,-3.8172 l 3.1018895,-1.44438 211.729358,-0.006 c 188.23354,-0.005 211.97674,0.0974 213.95867,0.92549 3.00386,1.25509 6.89027,4.85867 8.51637,7.89658 1.30377,2.43574 1.33204,3.00142 1.33204,26.65105 0,23.62314 -0.0296,24.21782 -1.32726,26.64168 -1.83967,3.43629 -4.85039,6.27928 -8.46007,7.98873 l -3.05855,1.44844 -209.81601,-0.0644 C 109.6411,451.87968 14.249999,451.65991 13.059682,451.42672 Z"
     id="path4604"
     inkscape:connector-curvature="0" />
  <path
     style="fill:#000000;stroke-width:0.61170846"
     d="M 11.855538,291.15223 C 7.6526621,289.87377 3.8829689,286.68567 1.6818638,282.54815 0.63896242,280.58776 0.52765019,278.45395 0.36220036,257.25075 0.15271571,230.40428 0.22871737,229.89128 5.1436609,224.97634 c 5.3131521,-5.31316 -16.9605899,-4.82289 218.9367791,-4.81905 140.73605,0.002 210.29076,0.20859 211.8015,0.62819 4.20192,1.16706 7.96508,4.25992 9.97097,8.19493 l 1.84888,3.627 v 23.28817 23.28817 l -1.72108,3.50484 c -1.98062,4.03337 -4.98239,6.76378 -8.9056,8.10056 -2.44075,0.83164 -25.93378,0.92883 -213.21467,0.88205 -115.75941,-0.0289 -211.161625,-0.26245 -212.004902,-0.51897 z"
     id="path4606"
     inkscape:connector-curvature="0" />
  <path
     style="fill:#1d3557;stroke-width:0.61170846;fill-opacity:1"
     d="m 11.855538,291.15223 c -4.2028759,-1.27846 -7.9725691,-4.46656 -10.1736742,-8.60408 -1.05615851,-1.98531 -1.13897252,-3.92006 -1.13897252,-26.60932 0,-23.9638 0.0274671,-24.51965 1.33204622,-26.9569 0.7326254,-1.36871 2.436653,-3.48651 3.7867279,-4.70622 4.9690766,-4.48926 -14.4974806,-4.12221 218.4187746,-4.11842 140.73605,0.002 210.29076,0.20859 211.8015,0.62819 4.20192,1.16706 7.96508,4.25992 9.97097,8.19493 l 1.84888,3.627 v 23.59402 23.59403 l -1.81456,3.27604 c -2.15839,3.89679 -5.06214,6.4399 -8.81212,7.71765 -2.44075,0.83164 -25.93378,0.92883 -213.21467,0.88205 -115.75941,-0.0289 -211.161625,-0.26245 -212.004902,-0.51897 z"
     id="path4608"
     inkscape:connector-curvature="0" />
  <path
     style="fill:#1d3557;fill-opacity:1;stroke-width:0.61170846"
     d="M 10.330227,130.65643 C 7.3278254,129.71009 2.2074358,124.40794 1.2867999,121.29199 0.75897871,119.50555 0.54679361,112.04272 0.55632562,95.600236 0.56907344,73.610528 0.63343576,72.285615 1.8158034,69.673596 3.4891312,65.976976 5.7366621,63.69368 9.4126643,61.955848 l 3.0585427,-1.445928 211.683963,-0.006 211.68395,-0.006 3.16532,1.577347 c 3.57744,1.782712 6.44535,5.039492 7.78743,8.843352 1.3575,3.847576 1.33666,46.221281 -0.0247,50.216661 -1.30111,3.81854 -4.01096,6.87389 -7.74844,8.73636 l -3.1796,1.58446 -211.68395,-0.0625 C 71.693727,131.34873 11.872228,131.14246 10.330227,130.65643 Z"
     id="path6074"
     inkscape:connector-curvature="0" />
  <path
     style="fill:#1d3557;fill-opacity:1;stroke-width:0.61170846"
     d="M 12.976723,451.35254 C 7.9084731,450.3504 3.8496707,447.1047 1.5364015,442.20406 0.28254552,439.54778 0.23718837,438.63725 0.24135882,416.20645 c 0.003374,-18.14692 0.1888193,-23.77026 0.84555958,-25.64029 1.1342634,-3.22973 5.2859065,-7.61359 8.5293867,-9.00645 2.5674529,-1.10255 9.2928889,-1.13802 214.7096849,-1.13246 l 212.0592,0.006 3.17303,1.81981 c 1.74517,1.00089 3.91075,2.787 4.8124,3.96912 3.19068,4.18321 3.27587,4.95766 3.29835,29.98454 0.0207,23.08506 0.0111,23.26599 -1.40549,26.30792 -1.60389,3.44421 -4.91096,6.63833 -8.61488,8.32065 -2.40318,1.09152 -9.54439,1.12771 -212.30284,1.07592 -115.39881,-0.0295 -210.964873,-0.28075 -212.369037,-0.5584 z"
     id="path6076"
     inkscape:connector-curvature="0" />
  <path
     style="fill:#1d3557;fill-opacity:1;stroke-width:0.61170846"
     d="m 110.03871,451.38516 -98.79092,-0.31132 -2.931407,-1.7231 c -3.3632708,-1.97696 -6.2647715,-5.65056 -7.1968219,-9.11193 -0.41318217,-1.53444 -0.57657103,-10.74139 -0.45697327,-25.7504 0.20886572,-26.21177 -0.019046,-24.84463 4.94749347,-29.67766 1.5870024,-1.54434 3.7079015,-2.91036 5.0956567,-3.282 1.614716,-0.43241 70.1917,-0.73211 213.807122,-0.93438 l 211.42994,-0.2978 3.30105,2.11166 c 4.11988,2.63546 6.37498,5.27698 7.33601,8.59306 0.52308,1.80491 0.75592,9.32191 0.78073,25.20516 0.0396,25.36929 0.005,25.62244 -4.14288,30.12214 -4.69555,5.09408 -0.72599,4.6986 -51.48724,5.12947 -49.79166,0.42264 -131.12758,0.40159 -281.69176,-0.0729 z"
     id="path6078"
     inkscape:connector-curvature="0" />
  <path
     style="fill:#1d3557;fill-opacity:1;stroke-width:0.61170846"
     d="M 93.828435,451.38513 11.24779,451.07384 8.316383,449.35074 C 5.0593419,447.43622 2.0954045,443.76569 1.1074076,440.42316 0.68356325,438.98923 0.52620314,430.0608 0.65364489,414.67718 0.87235074,388.277 0.64772569,389.63944 5.5714702,384.84865 c 1.4739287,-1.43413 3.6293399,-2.91911 4.7898038,-3.29995 1.547456,-0.50784 58.557608,-0.76673 213.853376,-0.97112 l 211.74345,-0.27869 2.77364,1.62546 c 3.55032,2.08062 6.76066,5.63948 7.81493,8.66332 0.63949,1.83419 0.8301,7.72789 0.83845,25.92464 0.0121,26.31557 0.16747,25.27158 -4.49147,30.17706 -4.3698,4.60103 -2.22665,4.33635 -38.62316,4.77014 -36.52051,0.43527 -184.66121,0.39978 -310.442055,-0.0744 z"
     id="path6080"
     inkscape:connector-curvature="0" />
  <path
     style="fill:#1d3557;fill-opacity:1;stroke-width:0.61170846"
     d="m 96.480766,291.11731 -86.045397,-0.3111 -2.5941037,-1.83512 c -1.4267568,-1.00932 -3.4152603,-2.85482 -4.4188961,-4.1011 -1.6299503,-2.02403 -1.8872075,-2.93844 -2.4093428,-8.56392 -0.74721313,-8.05047 -0.27299041,-44.27582 0.6076401,-46.41696 0.3577231,-0.86976 1.981995,-3.01274 3.6094932,-4.76219 l 2.9590876,-3.18081 7.0346477,-0.74319 c 10.803596,-1.14136 418.351595,-1.01239 421.721525,0.13346 3.1663,1.07661 7.44983,5.09756 9.28185,8.71287 l 1.47452,2.90984 -0.006,23.41818 -0.006,23.41819 -2.39042,3.76774 c -1.67263,2.63636 -3.27812,4.28952 -5.34664,5.50538 l -2.95561,1.73763 -41.90203,0.38072 c -46.93743,0.42647 -169.29001,0.39794 -298.614094,-0.0696 z"
     id="path6082"
     inkscape:connector-curvature="0" />
  <path
     style="fill:#1d3557;fill-opacity:1;stroke-width:0.61170846"
     d="m 79.35291,291.11728 -68.917584,-0.31107 -2.5940821,-1.83512 c -1.4267452,-1.00932 -3.4000552,-2.83605 -4.3851331,-4.05942 -2.62639902,-3.26169 -3.05295796,-8.27172 -2.80530754,-32.94895 0.23823482,-23.73899 0.0247156,-22.61459 5.26181434,-27.70911 2.2749622,-2.21302 2.675693,-2.35808 8.4495134,-3.05854 9.550816,-1.15867 419.271269,-1.04692 422.583289,0.11526 3.04985,1.07018 7.21782,4.90065 9.20904,8.46334 l 1.54733,2.76848 v 23.68474 23.68475 l -2.33584,3.61216 c -1.29866,2.00827 -3.53947,4.427 -5.04659,5.44729 l -2.71076,1.83512 -29.05615,0.38135 c -33.12949,0.43482 -226.44091,0.39355 -329.19954,-0.0703 z"
     id="path6084"
     inkscape:connector-curvature="0" />
</svg>
